<svg width="28" height="28" viewBox="0 0 28 28" fill="none" xmlns="http://www.w3.org/2000/svg">
<path d="M22.1667 12.8333H5.83333M22.1667 12.8333C23.4553 12.8333 24.5 13.878 24.5 15.1667V22.1667C24.5 23.4553 23.4553 24.5 22.1667 24.5H5.83333C4.54467 24.5 3.5 23.4553 3.5 22.1667V15.1667C3.5 13.878 4.54467 12.8333 5.83333 12.8333M22.1667 12.8333V10.5C22.1667 9.21134 21.122 8.16667 19.8333 8.16667M5.83333 12.8333V10.5C5.83333 9.21134 6.878 8.16667 8.16667 8.16667M8.16667 8.16667V5.83333C8.16667 4.54467 9.21134 3.5 10.5 3.5H17.5C18.7887 3.5 19.8333 4.54467 19.8333 5.83333V8.16667M8.16667 8.16667H19.8333" stroke="#CFD4D6" stroke-width="1.98333" stroke-linecap="round" stroke-linejoin="round"/>
</svg>
