<svg width="26" height="26" viewBox="0 0 26 26" fill="none" xmlns="http://www.w3.org/2000/svg">
<path d="M13.0001 23.8333C18.9832 23.8333 23.8334 18.9831 23.8334 13C23.8334 7.01692 18.9832 2.16667 13.0001 2.16667C7.017 2.16667 2.16675 7.01692 2.16675 13C2.16675 18.9831 7.017 23.8333 13.0001 23.8333Z" stroke="#CFD4D6" stroke-width="1.7" stroke-linecap="round" stroke-linejoin="round"/>
<path d="M16.6447 8.7229C17.0356 8.5926 17.4075 8.96447 17.2772 9.35535L15.3758 15.0595C15.326 15.2088 15.2089 15.326 15.0596 15.3757L9.35542 17.2771C8.96454 17.4074 8.59267 17.0355 8.72297 16.6447L10.6243 10.9405C10.6741 10.7912 10.7913 10.674 10.9406 10.6243L16.6447 8.7229Z" stroke="#CFD4D6" stroke-width="1.7" stroke-linecap="round" stroke-linejoin="round"/>
</svg>
