<svg width="30" height="28" viewBox="0 0 30 28" fill="none" xmlns="http://www.w3.org/2000/svg">
<path d="M11.25 16.3333L18.75 9.3333M11.875 9.91664H11.8875M18.125 15.75H18.1375M23.75 24.5V5.8333C23.75 4.54464 22.6307 3.49997 21.25 3.49997H8.75C7.36929 3.49997 6.25 4.54464 6.25 5.8333V24.5L10.625 22.1666L15 24.5L19.375 22.1666L23.75 24.5ZM12.5 9.91664C12.5 10.2388 12.2202 10.5 11.875 10.5C11.5298 10.5 11.25 10.2388 11.25 9.91664C11.25 9.59447 11.5298 9.3333 11.875 9.3333C12.2202 9.3333 12.5 9.59447 12.5 9.91664ZM18.75 15.75C18.75 16.0721 18.4702 16.3333 18.125 16.3333C17.7798 16.3333 17.5 16.0721 17.5 15.75C17.5 15.4278 17.7798 15.1666 18.125 15.1666C18.4702 15.1666 18.75 15.4278 18.75 15.75Z" stroke="#CFD4D6" stroke-width="1.7" stroke-linecap="round" stroke-linejoin="round"/>
</svg>
