<svg width="25" height="25" viewBox="0 0 25 25" fill="none" xmlns="http://www.w3.org/2000/svg">
<path d="M6.78785 17.0101C6.4559 17.342 6.4559 17.8802 6.78785 18.2122C7.11979 18.5441 7.65798 18.5441 7.98993 18.2122L6.78785 17.0101ZM16.7611 11.2222C16.7611 12.8699 15.4254 14.2056 13.7778 14.2056V15.9056C16.3643 15.9056 18.4611 13.8088 18.4611 11.2222H16.7611ZM10.7944 11.2222C10.7944 9.57457 12.1301 8.23889 13.7778 8.23889V6.53889C11.1912 6.53889 9.09444 8.63569 9.09444 11.2222H10.7944ZM13.7778 8.23889C15.4254 8.23889 16.7611 9.57457 16.7611 11.2222H18.4611C18.4611 8.63569 16.3643 6.53889 13.7778 6.53889V8.23889ZM10.4662 13.3318L6.78785 17.0101L7.98993 18.2122L11.6682 14.5338L10.4662 13.3318ZM13.7778 14.2056C12.9537 14.2056 12.2091 13.8726 11.6682 13.3318L10.4662 14.5338C11.3127 15.3804 12.4847 15.9056 13.7778 15.9056V14.2056ZM11.6682 13.3318C11.1274 12.7909 10.7944 12.0463 10.7944 11.2222H9.09444C9.09444 12.5153 9.61958 13.6873 10.4662 14.5338L11.6682 13.3318ZM23.15 12.5C23.15 18.3818 18.3818 23.15 12.5 23.15V24.85C19.3207 24.85 24.85 19.3207 24.85 12.5H23.15ZM12.5 23.15C6.61817 23.15 1.85 18.3818 1.85 12.5H0.15C0.15 19.3207 5.67928 24.85 12.5 24.85V23.15ZM1.85 12.5C1.85 6.61817 6.61817 1.85 12.5 1.85V0.15C5.67928 0.15 0.15 5.67928 0.15 12.5H1.85ZM12.5 1.85C18.3818 1.85 23.15 6.61817 23.15 12.5H24.85C24.85 5.67928 19.3207 0.15 12.5 0.15V1.85Z" fill="#CFD4D6"/>
</svg>
