<svg width="545" height="133" viewBox="0 0 545 133" fill="none" xmlns="http://www.w3.org/2000/svg">
<path fill-rule="evenodd" clip-rule="evenodd" d="M485.336 128.163C485.336 129.426 484.312 130.451 483.048 130.451H464.031C462.767 130.451 461.743 129.426 461.743 128.163V2.99999C461.743 1.73659 462.767 0.712402 464.031 0.712402H483.048C484.312 0.712402 485.336 1.73659 485.336 2.99999V37.1035C485.336 38.9934 487.532 40.1054 489.195 39.2074C490.792 38.3452 492.415 37.6756 494.064 37.1986C497.06 36.2742 500.114 35.8119 503.225 35.8119C508.928 35.8119 514.286 36.9097 519.299 39.1052C524.311 41.243 528.661 44.2185 532.348 48.0318C536.093 51.7873 539.031 56.2072 541.163 61.2916C543.352 66.3182 544.447 71.6915 544.447 77.4114V128.163C544.447 129.426 543.423 130.451 542.159 130.451H522.969C521.706 130.451 520.682 129.426 520.682 128.163V77.4978C520.682 77.4501 520.72 77.4114 520.768 77.4114C520.816 77.4114 520.854 77.3726 520.854 77.3249C520.843 74.9305 520.383 72.6771 519.472 70.5648C518.55 68.3693 517.282 66.4626 515.669 64.8449C514.056 63.2271 512.184 61.956 510.052 61.0316C507.92 60.1072 505.644 59.645 503.225 59.645C500.747 59.645 498.414 60.1072 496.225 61.0316C494.035 61.956 492.134 63.2271 490.521 64.8449C488.908 66.4626 487.64 68.3693 486.718 70.5648C485.797 72.7026 485.336 74.9847 485.336 77.4114V128.163ZM83.3141 53.007C83.9272 53.9264 83.9286 55.163 83.2229 56.0134L71.2709 70.4179C70.1383 71.7828 67.9174 71.4001 67.0517 69.8521C66.4905 68.8485 65.8602 67.9017 65.1608 67.0115C63.6629 65.0471 61.9633 63.4005 60.062 62.0716C58.2184 60.7427 56.2019 59.7316 54.0126 59.0383C51.8233 58.345 49.5764 57.9983 47.2718 57.9983C44.0455 57.9983 40.992 58.6627 38.1113 59.9916C35.2882 61.3205 32.8109 63.1982 30.6792 65.6249C28.6051 67.9937 26.9631 70.8248 25.7532 74.1181C24.5433 77.4114 23.9384 81.0513 23.9384 85.0379C23.9384 88.2735 24.5433 91.3068 25.7532 94.1378C26.9631 96.9689 28.6051 99.4533 30.6792 101.591C32.8109 103.729 35.2882 105.404 38.1113 106.618C40.992 107.831 44.0455 108.438 47.2718 108.438C49.5764 108.438 51.7945 108.12 53.9262 107.484C56.0579 106.849 58.0456 105.953 59.8892 104.798C61.7904 103.584 63.4612 102.14 64.9016 100.464C65.454 99.8251 65.9673 99.1623 66.4414 98.4759C67.4807 96.9711 69.843 96.8187 70.8206 98.3643L81.1614 114.714C81.6549 115.495 81.62 116.491 81.1253 117.271C80.9309 117.577 80.7918 117.812 80.677 118.005C80.1921 118.822 80.144 118.903 78.2103 120.571C75.3872 123.055 72.3049 125.164 68.9633 126.897C65.6793 128.631 62.1937 129.931 58.5065 130.797C54.8768 131.722 51.1319 132.184 47.2718 132.184C40.7615 132.184 34.6257 130.971 28.8643 128.544C23.1606 126.06 18.1482 122.68 13.8272 118.404C9.56383 114.129 6.19345 109.131 3.71607 103.411C1.23869 97.6911 0 91.5667 0 85.0379C0 78.2748 1.12186 71.9303 3.36558 66.0044C5.64409 66.6896 8.09025 66.9554 10.605 66.7197C18.2531 66.003 24.4159 60.847 26.7853 54.0367C36.4787 52.1057 43.6541 43.9081 44.3983 34.1664C45.3479 34.1079 46.3058 34.0786 47.2718 34.0786C51.1319 34.0786 54.9056 34.5697 58.5929 35.5519C62.3377 36.5341 65.881 37.9786 69.2226 39.8852C72.6217 41.7341 75.7329 44.0163 78.5559 46.7318C80.3683 48.4403 81.5603 50.2932 82.6163 51.9349L82.6164 51.9351L82.6171 51.9362L82.6176 51.9369C82.8548 52.3056 83.0851 52.6637 83.3141 53.007ZM119.614 128.163C119.614 129.426 118.59 130.451 117.327 130.451H98.3092C97.0458 130.451 96.0217 129.426 96.0217 128.163V40.9334C96.0217 38.9101 98.4553 37.8829 99.905 39.2943L107.959 47.135C108.826 47.9794 110.197 47.9962 111.133 47.2283C114.527 44.4426 118.305 42.2549 122.466 40.6652C127.306 38.7586 132.318 37.8052 137.503 37.8052H156.043C157.306 37.8052 158.331 38.8294 158.331 40.0928V59.0907C158.331 60.3541 157.306 61.3783 156.043 61.3783H137.503C135.026 61.3783 132.693 61.8405 130.503 62.7649C128.314 63.6893 126.413 64.9604 124.8 66.5782C123.186 68.1959 121.919 70.1026 120.997 72.2981C120.075 74.4936 119.614 76.8336 119.614 79.318V128.163ZM239.784 120.927C240.648 120.189 241.919 120.152 242.797 120.872L249.045 125.997L251.054 127.565C252.556 128.738 254.749 127.668 254.749 125.762V39.9195C254.749 38.6561 253.725 37.6319 252.461 37.6319H233.444C232.18 37.6319 231.156 38.6561 231.156 39.9195V88.9379C231.156 91.4223 230.695 93.8489 229.774 96.2178C228.852 98.5289 227.584 100.609 225.971 102.458C224.358 104.307 222.457 105.809 220.267 106.964C218.136 108.062 215.86 108.611 213.44 108.611C210.963 108.611 208.629 108.178 206.44 107.311C204.308 106.444 202.436 105.173 200.823 103.498C199.21 101.822 197.913 99.7711 196.934 97.3444C196.012 94.86 195.551 92.0579 195.551 88.9379V39.9195C195.551 38.6561 194.527 37.6319 193.264 37.6319H174.332C173.069 37.6319 172.045 38.6561 172.045 39.9195V88.9379C172.045 95.5823 173.111 101.591 175.242 106.964C177.432 112.28 180.399 116.815 184.144 120.571C187.946 124.269 192.354 127.128 197.366 129.151C202.378 131.173 207.736 132.184 213.44 132.184C216.033 132.184 218.568 131.837 221.045 131.144C223.58 130.508 226.029 129.642 228.391 128.544C230.753 127.388 233 126.06 235.132 124.557C236.762 123.395 238.313 122.185 239.784 120.927ZM291.763 128.163C291.763 129.426 290.739 130.451 289.476 130.451H270.458C269.195 130.451 268.171 129.426 268.171 128.163V40.7828C268.171 38.8756 270.367 37.8059 271.869 38.982L280.13 45.4525C281.009 46.141 282.252 46.0889 283.111 45.3751C286.542 42.5226 290.348 40.2882 294.529 38.6719C299.368 36.7653 304.409 35.8119 309.652 35.8119C315.298 35.8119 320.628 36.9097 325.64 39.1052C330.652 41.243 335.031 44.2185 338.776 48.0318C342.521 51.7873 345.459 56.2072 347.591 61.2916C349.78 66.3182 350.875 71.6915 350.875 77.4114V128.163C350.875 129.426 349.851 130.451 348.587 130.451H329.57C328.306 130.451 327.282 129.426 327.282 128.163V77.4114C327.282 74.9847 326.821 72.7026 325.899 70.5648C324.977 68.3693 323.71 66.4626 322.097 64.8449C320.484 63.2271 318.611 61.956 316.48 61.0316C314.348 60.1072 312.072 59.645 309.652 59.645C307.175 59.645 304.842 60.1072 302.652 61.0316C300.463 61.956 298.562 63.2271 296.949 64.8449C295.335 66.4626 294.068 68.3693 293.146 70.5648C292.224 72.7026 291.763 74.9847 291.763 77.4114V128.163ZM448.921 57.3434C449.653 56.6058 449.801 55.4639 449.239 54.5898C447.365 51.6744 445.195 49.0551 442.731 46.7318C439.907 44.0163 436.796 41.7341 433.397 39.8852C430.056 37.9786 426.512 36.5341 422.767 35.5519C419.08 34.5697 415.307 34.0786 411.446 34.0786C404.936 34.0786 398.8 35.4075 393.039 38.0652C387.335 40.723 382.323 44.3629 378.002 48.9851C373.738 53.5495 370.368 58.9227 367.891 65.1049C365.413 71.287 364.175 77.9314 364.175 85.0379C364.175 91.5667 365.413 97.6911 367.891 103.411C370.368 109.131 373.738 114.129 378.002 118.404C382.323 122.68 387.335 126.06 393.039 128.544C398.8 130.971 404.936 132.184 411.446 132.184C415.307 132.184 419.051 131.722 422.681 130.797C426.368 129.931 429.854 128.631 433.138 126.897C436.479 125.164 439.562 123.055 442.385 120.571C444.782 118.503 446.94 116.216 448.859 113.708C449.532 112.828 449.422 111.592 448.642 110.806L435.064 97.1215C433.93 95.9785 431.991 96.3351 431.131 97.6963C430.52 98.6635 429.835 99.5862 429.076 100.464C427.636 102.14 425.965 103.584 424.064 104.798C422.22 105.953 420.233 106.849 418.101 107.484C415.969 108.12 413.751 108.438 411.446 108.438C408.22 108.438 405.167 107.831 402.286 106.618C399.463 105.404 396.985 103.729 394.854 101.591C392.78 99.4533 391.138 96.9689 389.928 94.1378C388.718 91.3068 388.113 88.2735 388.113 85.0379C388.113 81.0513 388.718 77.4114 389.928 74.1181C391.138 70.8248 392.78 67.9937 394.854 65.6249C396.985 63.1982 399.463 61.3205 402.286 59.9916C405.167 58.6627 408.22 57.9983 411.446 57.9983C413.751 57.9983 415.998 58.345 418.187 59.0383C420.377 59.7316 422.393 60.7427 424.237 62.0716C426.138 63.4005 427.837 65.0471 429.335 67.0115C430.113 68.0011 430.805 69.0606 431.412 70.1902C432.209 71.6739 434.252 72.1272 435.438 70.9317L448.921 57.3434Z" fill="#6400FF"/>
</svg>
