<svg width="26" height="26" viewBox="0 0 26 26" fill="none" xmlns="http://www.w3.org/2000/svg">
<path d="M13 23.8334C18.983 23.8334 23.8333 18.9832 23.8333 13.0001C23.8333 7.017 18.983 2.16675 13 2.16675C7.01687 2.16675 2.16663 7.017 2.16663 13.0001C2.16663 18.9832 7.01687 23.8334 13 23.8334Z" stroke="#CFD4D6" stroke-width="1.7" stroke-linecap="round" stroke-linejoin="round"/>
<path d="M16.6446 8.72297C17.0355 8.59267 17.4073 8.96454 17.2771 9.35542L15.3757 15.0596C15.3259 15.2089 15.2087 15.326 15.0594 15.3758L9.3553 17.2772C8.96442 17.4075 8.59255 17.0356 8.72284 16.6447L10.6242 10.9406C10.674 10.7913 10.7912 10.6741 10.9405 10.6243L16.6446 8.72297Z" stroke="#CFD4D6" stroke-width="1.7" stroke-linecap="round" stroke-linejoin="round"/>
</svg>
