<svg width="12" height="16" viewBox="0 0 12 16" fill="none" xmlns="http://www.w3.org/2000/svg">
<path d="M6.49941 0.485231C6.84645 0.485256 7.18274 0.605611 7.45099 0.825788C7.71924 1.04597 7.90285 1.35234 7.97053 1.69272C8.03821 2.03309 7.98578 2.38641 7.82217 2.69246C7.65855 2.99851 7.39388 3.23836 7.07325 3.37115C6.75262 3.50393 6.39587 3.52144 6.06378 3.42068C5.73169 3.31992 5.44481 3.10713 5.25202 2.81856C5.05924 2.53 4.97247 2.18352 5.0065 1.83815C5.04054 1.49279 5.19327 1.16991 5.43867 0.924526C5.57782 0.785027 5.74316 0.674404 5.9252 0.599015C6.10724 0.523626 6.30238 0.484957 6.49941 0.485231Z" fill="#7D8589"/>
<path d="M6.18556 3.6349C6.39901 3.69161 6.59586 3.7984 6.75977 3.94642C6.92021 4.0906 7.04585 4.26929 7.12724 4.46905L8.44433 6.5925L10.865 7.01156C10.9614 7.02736 11.0521 7.06756 11.1285 7.12834C11.2049 7.18912 11.2645 7.26846 11.3015 7.35879C11.3809 7.52744 11.3968 7.73578 11.3837 7.92745C11.3827 7.95765 11.3796 7.98774 11.3746 8.01753C11.3372 8.2346 11.1952 8.37468 11.0087 8.45087C10.8462 8.51315 10.6713 8.53574 10.4983 8.51675C10.4587 8.51318 10.4277 8.50921 10.4003 8.50445L7.88004 8.06793C7.81282 8.05569 7.74807 8.0325 7.68836 7.99928C7.636 7.97047 7.58713 7.93572 7.54273 7.8957C7.47959 7.85597 7.42103 7.80939 7.36812 7.75681C7.30767 7.69708 7.25439 7.63049 7.20939 7.5584L6.80303 6.90362C6.64826 7.57268 6.42326 8.5354 6.20976 9.00366L7.58955 10.1827C7.6545 10.2384 7.71439 10.2997 7.76853 10.366C7.81556 10.4234 7.85764 10.4848 7.89432 10.5493C7.94258 10.6072 7.98338 10.671 8.01575 10.739C8.05098 10.814 8.07274 10.8946 8.08004 10.9771L8.31179 13.9311C8.31497 13.9708 8.31655 14.0069 8.31655 14.0427C8.31935 14.2384 8.27555 14.4319 8.18877 14.6074C8.13047 14.7249 8.03954 14.8231 7.92686 14.8903C7.7713 14.9788 7.60741 14.9744 7.43638 14.957C7.26496 14.9438 7.09818 14.895 6.94668 14.8137C6.76136 14.7066 6.6312 14.5427 6.61215 14.3006L6.38437 11.418L5.04506 10.2739L4.83791 11.7751C4.82692 11.8549 4.80927 11.9336 4.78513 12.0105C4.76396 12.0776 4.73742 12.1429 4.70576 12.2057C4.6928 12.2535 4.67526 12.2998 4.65338 12.3442C4.62706 12.3981 4.5937 12.4483 4.55417 12.4934L2.58112 14.7042C2.5585 14.7296 2.5327 14.7562 2.50175 14.7835C2.36326 14.9212 2.19407 15.024 2.00809 15.0836C1.79459 15.1443 1.57832 15.1232 1.39935 14.9625C1.39336 14.9571 1.38767 14.9514 1.38228 14.9455L1.3799 14.9431C1.36923 14.9341 1.3594 14.9241 1.35054 14.9133C1.19537 14.7478 1.0537 14.5411 1.00172 14.3284C0.949734 14.1157 0.9791 13.9133 1.14061 13.7331L3.11129 11.5212L3.13748 11.493L3.50495 8.83422C3.51883 8.73382 3.52637 8.61318 3.53352 8.49453C3.53841 8.32646 3.55806 8.15914 3.59225 7.99452L4.19464 5.64804L3.06446 5.98932L2.03269 8.21674C1.99257 8.30601 1.93026 8.38351 1.85169 8.44186C1.77313 8.50021 1.68092 8.53747 1.58387 8.55008C1.38546 8.58342 1.16323 8.53818 0.97156 8.46714L0.965607 8.46476C0.955687 8.46079 0.943385 8.45564 0.929496 8.44889C0.731079 8.35682 0.632664 8.1838 0.606076 7.98301C0.587981 7.81022 0.6111 7.6356 0.673538 7.47347V7.47109C0.683459 7.44411 0.696158 7.41434 0.71084 7.3826L1.78467 5.06152C1.8138 4.99967 1.8528 4.94297 1.90015 4.89366C1.94081 4.85151 1.98622 4.81422 2.03547 4.78254C2.09102 4.73098 2.15211 4.68573 2.21762 4.64762C2.29071 4.60439 2.36862 4.56989 2.44977 4.54484L5.32324 3.67657C5.3526 3.66585 5.38117 3.65593 5.40895 3.6476L5.42205 3.64403C5.44308 3.63808 5.4661 3.63212 5.49149 3.62617C5.51352 3.61967 5.53591 3.6145 5.55856 3.6107C5.58197 3.60633 5.60261 3.60316 5.62007 3.60157C5.8083 3.57514 5.99991 3.58675 6.18357 3.6357L6.18556 3.6349Z" fill="#7D8589"/>
</svg>
