<svg width="18" height="18" viewBox="0 0 18 18" fill="none" xmlns="http://www.w3.org/2000/svg">
<path d="M13.2426 12.4926C12.5402 13.1951 11.0712 14.6641 10.0603 15.6749C9.47456 16.2607 8.52576 16.261 7.93997 15.6753C6.94676 14.682 5.50619 13.2415 4.75736 12.4926C2.41421 10.1495 2.41421 6.35051 4.75736 4.00736C7.10051 1.66421 10.8995 1.66421 13.2426 4.00736C15.5858 6.35051 15.5858 10.1495 13.2426 12.4926Z" stroke="#3C0099" stroke-width="1.5" stroke-linecap="round" stroke-linejoin="round"/>
<path d="M11.25 8.25C11.25 9.49264 10.2426 10.5 9 10.5C7.75736 10.5 6.75 9.49264 6.75 8.25C6.75 7.00736 7.75736 6 9 6C10.2426 6 11.25 7.00736 11.25 8.25Z" stroke="#3C0099" stroke-width="1.5" stroke-linecap="round" stroke-linejoin="round"/>
</svg>
