<svg width="17" height="17" viewBox="0 0 17 17" fill="none" xmlns="http://www.w3.org/2000/svg">
<path d="M16.601 15.399C16.933 15.7309 16.933 16.2691 16.601 16.601C16.2691 16.933 15.7309 16.933 15.399 16.601L16.601 15.399ZM1.85 6.625C1.85 9.26216 3.98784 11.4 6.625 11.4V13.1C3.04895 13.1 0.15 10.201 0.15 6.625H1.85ZM11.4 6.625C11.4 3.98784 9.26216 1.85 6.625 1.85V0.15C10.201 0.15 13.1 3.04896 13.1 6.625H11.4ZM6.625 1.85C3.98784 1.85 1.85 3.98784 1.85 6.625H0.15C0.15 3.04896 3.04895 0.15 6.625 0.15V1.85ZM11.2035 10.0014L16.601 15.399L15.399 16.601L10.0014 11.2035L11.2035 10.0014ZM6.625 11.4C7.94381 11.4 9.1364 10.8665 10.0014 10.0014L11.2035 11.2035C10.0327 12.3743 8.41279 13.1 6.625 13.1V11.4ZM10.0014 10.0014C10.8665 9.1364 11.4 7.94382 11.4 6.625H13.1C13.1 8.41279 12.3743 10.0327 11.2035 11.2035L10.0014 10.0014Z" fill="#7D8589"/>
</svg>
