<svg width="26" height="23" viewBox="0 0 26 23" fill="none" xmlns="http://www.w3.org/2000/svg">
<path d="M11.6931 1.8877C12.1142 0.635107 13.8858 0.635108 14.3069 1.8877L16.0522 7.07945C16.2409 7.64074 16.7669 8.01887 17.3591 8.01889L22.9042 8.01909C24.2511 8.01914 24.7989 9.75201 23.6967 10.5262L19.292 13.6199C18.7923 13.9709 18.583 14.6087 18.7775 15.1875L20.4786 20.2491C20.9028 21.5112 19.4689 22.5819 18.3793 21.8167L13.7924 18.5955C13.3169 18.2616 12.6831 18.2616 12.2076 18.5955L7.62072 21.8167C6.53112 22.5819 5.09721 21.5112 5.52137 20.2491L7.22249 15.1875C7.41701 14.6087 7.20768 13.9709 6.70802 13.6199L2.30332 10.5262C1.20112 9.75201 1.74885 8.01914 3.09575 8.01909L8.64092 8.01889C9.23308 8.01887 9.7591 7.64074 9.94779 7.07945L11.6931 1.8877Z" stroke="#CFD4D6" stroke-width="1.7"/>
</svg>
