<svg width="27" height="22" viewBox="0 0 27 22" fill="none" xmlns="http://www.w3.org/2000/svg">
<path d="M25.8182 7.89394V8.74394C26.2876 8.74394 26.6682 8.36338 26.6682 7.89394H25.8182ZM25.8182 13.4091H26.6682C26.6682 12.9396 26.2876 12.5591 25.8182 12.5591V13.4091ZM1 13.4091V12.5591C0.530558 12.5591 0.15 12.9396 0.15 13.4091H1ZM1 7.89394H0.15C0.15 8.36338 0.530558 8.74394 1 8.74394L1 7.89394ZM18.3955 1C18.3955 0.530558 18.0149 0.15 17.5455 0.15C17.076 0.15 16.6955 0.530558 16.6955 1H18.3955ZM16.6955 3.75758C16.6955 4.22702 17.076 4.60758 17.5455 4.60758C18.0149 4.60758 18.3955 4.22702 18.3955 3.75758H16.6955ZM18.3955 9.27273C18.3955 8.80329 18.0149 8.42273 17.5455 8.42273C17.076 8.42273 16.6955 8.80329 16.6955 9.27273H18.3955ZM16.6955 12.0303C16.6955 12.4997 17.076 12.8803 17.5455 12.8803C18.0149 12.8803 18.3955 12.4997 18.3955 12.0303H16.6955ZM18.3955 17.5455C18.3955 17.076 18.0149 16.6955 17.5455 16.6955C17.076 16.6955 16.6955 17.076 16.6955 17.5455H18.3955ZM16.6955 20.303C16.6955 20.7725 17.076 21.153 17.5455 21.153C18.0149 21.153 18.3955 20.7725 18.3955 20.303H16.6955ZM3.75758 0.15C1.76517 0.15 0.15 1.76517 0.15 3.75758H1.85C1.85 2.70405 2.70405 1.85 3.75758 1.85V0.15ZM23.0606 0.15H3.75758V1.85H23.0606V0.15ZM26.6682 3.75758C26.6682 1.76517 25.053 0.15 23.0606 0.15V1.85C24.1141 1.85 24.9682 2.70405 24.9682 3.75758H26.6682ZM26.6682 7.89394V3.75758H24.9682V7.89394H26.6682ZM23.9106 10.6515C23.9106 9.59799 24.7647 8.74394 25.8182 8.74394V7.04394C23.8258 7.04394 22.2106 8.65911 22.2106 10.6515H23.9106ZM25.8182 12.5591C24.7647 12.5591 23.9106 11.705 23.9106 10.6515H22.2106C22.2106 12.6439 23.8258 14.2591 25.8182 14.2591V12.5591ZM26.6682 17.5455V13.4091H24.9682V17.5455H26.6682ZM23.0606 21.153C25.053 21.153 26.6682 19.5379 26.6682 17.5455H24.9682C24.9682 18.599 24.1141 19.453 23.0606 19.453V21.153ZM3.75758 21.153H23.0606V19.453H3.75758V21.153ZM0.15 17.5455C0.15 19.5379 1.76517 21.153 3.75758 21.153V19.453C2.70405 19.453 1.85 18.599 1.85 17.5455H0.15ZM0.15 13.4091V17.5455H1.85V13.4091H0.15ZM2.90758 10.6515C2.90758 11.705 2.05352 12.5591 1 12.5591V14.2591C2.99241 14.2591 4.60758 12.6439 4.60758 10.6515H2.90758ZM1 8.74394C2.05352 8.74394 2.90758 9.59799 2.90758 10.6515H4.60758C4.60758 8.65911 2.99241 7.04394 1 7.04394V8.74394ZM0.15 3.75758V7.89394H1.85V3.75758H0.15ZM16.6955 1V3.75758H18.3955V1H16.6955ZM16.6955 9.27273V12.0303H18.3955V9.27273H16.6955ZM16.6955 17.5455V20.303H18.3955V17.5455H16.6955Z" fill="#CFD4D6"/>
</svg>
